<?xml version="1.0" standalone="no"?>
<!DOCTYPE svg PUBLIC "-//W3C//DTD SVG 20010904//EN"
 "http://www.w3.org/TR/2001/REC-SVG-20010904/DTD/svg10.dtd">
<svg version="1.0" xmlns="http://www.w3.org/2000/svg"
 width="267.000000pt" height="253.000000pt" viewBox="0 0 267.000000 253.000000"
 preserveAspectRatio="xMidYMid meet">
<metadata>
Created by potrace 1.16, written by Peter Selinger 2001-2019
</metadata>
<g transform="translate(0.000000,253.000000) scale(0.100000,-0.100000)"
fill="#000000" stroke="none">
<path d="M314 2248 c-39 -10 -80 -50 -87 -84 -2 -14 1 -107 8 -207 8 -100 23
-328 35 -507 23 -360 37 -457 81 -569 89 -229 294 -425 544 -522 224 -87 503
-93 731 -15 263 89 484 286 587 522 49 111 65 217 87 569 12 182 27 417 35
524 13 177 13 197 -2 228 -21 45 -53 65 -106 65 -48 1 -61 -7 -329 -202 -53
-38 -103 -70 -110 -70 -8 0 -22 6 -33 14 -35 24 -178 74 -258 90 -103 21 -315
22 -424 1 -80 -15 -158 -41 -256 -85 l-47 -21 -182 132 c-100 73 -195 135
-212 139 -17 3 -45 3 -62 -2z m239 -226 c105 -76 197 -141 203 -145 6 -3 47
11 91 33 162 78 307 106 487 97 139 -7 243 -34 369 -94 l97 -47 58 40 c31 22
124 89 205 147 81 59 155 107 163 107 8 0 17 -7 21 -15 5 -15 -54 -957 -62
-982 -3 -10 -50 -13 -190 -13 l-185 0 0 -25 0 -25 185 0 c207 0 196 4 174 -72
l-10 -38 -174 0 -175 0 0 -25 0 -25 165 0 c91 0 165 -2 165 -4 0 -2 -9 -25
-20 -50 l-19 -46 -146 0 -145 0 0 -30 0 -30 120 0 c66 0 120 -4 120 -9 0 -26
-105 -138 -190 -201 -376 -280 -916 -245 -1241 79 -47 47 -91 96 -98 109 l-12
22 116 0 116 0 -3 28 -3 27 -132 3 -131 3 -21 44 c-12 25 -21 47 -21 50 0 3
70 5 155 5 l155 0 0 25 0 25 -160 0 c-177 0 -171 -2 -185 73 l-7 37 176 0 176
0 0 25 0 25 -177 2 -178 3 -7 95 c-47 692 -59 884 -54 896 3 8 12 14 21 14 8
0 102 -62 208 -138z"/>
<path d="M844 1437 c-52 -45 -17 -137 52 -137 35 0 74 42 74 80 0 38 -39 80
-74 80 -14 0 -37 -11 -52 -23z"/>
<path d="M1616 1439 c-52 -41 -18 -139 48 -139 70 0 104 92 51 138 -33 28 -65
28 -99 1z"/>
<path d="M1252 1089 c-42 -9 -78 -42 -93 -86 -16 -49 10 -115 57 -143 l34 -22
0 -124 0 -124 30 0 30 0 0 128 0 127 35 19 c46 25 72 89 56 139 -22 65 -83
100 -149 86z"/>
</g>
</svg>
