<?xml version="1.0" standalone="no"?>
<!DOCTYPE svg PUBLIC "-//W3C//DTD SVG 20010904//EN"
 "http://www.w3.org/TR/2001/REC-SVG-20010904/DTD/svg10.dtd">
<svg version="1.0" xmlns="http://www.w3.org/2000/svg"
 width="719.000000pt" height="213.000000pt" viewBox="0 0 719.000000 213.000000"
 preserveAspectRatio="xMidYMid meet">
<metadata>
Created by potrace 1.16, written by Peter Selinger 2001-2019
</metadata>
<g transform="translate(0.000000,213.000000) scale(0.100000,-0.100000)"
fill="#000000" stroke="none">
<path d="M299 2107 c-87 -33 -90 -38 -162 -269 -127 -409 -144 -506 -94 -529
18 -8 33 -7 60 4 48 21 157 95 157 108 0 16 111 138 132 145 38 12 52 -3 452
-475 l156 -185 0 -418 0 -418 1900 0 1900 0 0 960 0 960 -1900 0 -1900 0 -2
-245 -3 -245 -63 104 c-137 229 -303 416 -421 476 -75 37 -156 48 -212 27z
m192 -72 c113 -57 282 -258 438 -521 l71 -120 -2 -203 -3 -203 -70 84 c-39 46
-133 157 -209 248 -289 345 -301 351 -422 223 -41 -43 -74 -83 -74 -89 0 -15
-140 -105 -151 -98 -13 7 18 155 61 289 10 33 42 133 69 222 l51 161 43 22
c54 27 123 22 198 -15z m4259 -1005 l0 -910 -1850 0 -1850 0 0 910 0 910 1850
0 1850 0 0 -910z"/>
<path d="M2306 1692 c-28 -45 -143 -165 -173 -181 l-22 -11 15 47 c9 27 18 74
21 106 l6 58 -34 -3 -33 -3 -43 -175 c-25 -99 -42 -192 -41 -215 3 -35 6 -40
31 -43 31 -4 33 0 42 81 6 55 9 60 42 73 27 12 42 13 68 4 40 -13 92 -69 101
-108 14 -62 14 -63 47 -60 27 3 33 8 35 32 7 61 -63 174 -120 192 -16 5 -10
15 46 75 89 94 99 110 87 143 -15 38 -46 34 -75 -12z"/>
<path d="M2885 1581 c-100 -60 -161 -225 -105 -281 48 -48 200 5 200 70 0 27
-26 25 -75 -5 -22 -14 -48 -25 -57 -25 -39 0 -10 108 41 154 13 12 37 20 59
20 33 1 37 4 40 31 6 52 -47 71 -103 36z"/>
<path d="M2562 1573 c-45 -22 -119 -107 -132 -151 -28 -102 3 -152 94 -152 46
0 61 5 98 33 26 19 54 53 71 86 69 137 -7 245 -131 184z m83 -82 c14 -46 -67
-161 -113 -161 -44 0 -54 45 -21 100 42 71 119 107 134 61z"/>
<path d="M3091 1528 c-5 -18 -22 -79 -37 -135 -22 -84 -24 -105 -14 -118 14
-16 46 -20 54 -6 13 20 76 273 71 281 -3 6 -19 10 -35 10 -23 0 -30 -6 -39
-32z"/>
<path d="M3288 1508 c-83 -87 -78 -78 -70 -144 7 -56 9 -60 46 -78 34 -17 46
-18 98 -8 71 13 118 44 118 78 0 31 -18 31 -78 -1 -67 -36 -112 -32 -112 10 0
19 7 23 45 28 103 15 166 78 134 136 -13 23 -22 26 -73 29 l-58 3 -50 -53z"/>
<path d="M2446 908 c-2 -7 -14 -52 -26 -99 l-22 -87 -44 -5 c-95 -10 -184
-107 -184 -199 0 -85 66 -114 155 -68 47 24 45 24 45 5 0 -10 10 -15 30 -15
33 0 35 4 45 110 3 36 22 128 41 204 19 76 33 145 30 152 -7 17 -65 18 -70 2z"/>
<path d="M3355 731 c-100 -60 -161 -225 -105 -281 48 -48 200 5 200 70 0 27
-26 25 -75 -5 -22 -14 -48 -25 -57 -25 -39 0 -10 108 41 154 13 12 37 20 59
20 33 1 37 4 40 31 6 52 -47 71 -103 36z"/>
<path d="M2662 723 c-45 -22 -119 -107 -132 -151 -28 -102 3 -152 94 -152 46
0 61 5 98 33 26 19 54 53 71 86 69 137 -7 245 -131 184z m83 -82 c14 -46 -67
-161 -113 -161 -44 0 -54 45 -21 100 42 71 119 107 134 61z"/>
<path d="M1992 722 c-96 -28 -182 -212 -124 -265 23 -21 72 -22 98 -2 26 20
34 19 34 -5 0 -16 7 -20 35 -20 28 0 35 4 39 23 3 12 17 73 32 135 31 132 28
143 -45 141 -25 -1 -56 -4 -69 -7z"/>
<path d="M2910 698 c0 -18 -18 -114 -39 -213 -22 -99 -35 -184 -31 -188 4 -5
20 -7 36 -5 27 3 30 7 43 76 l15 72 43 0 c100 0 213 95 213 179 0 84 -66 121
-167 92 -24 -7 -33 -6 -37 5 -3 8 -20 14 -41 14 -33 0 -35 -2 -35 -32z m199
-56 c23 -43 -50 -123 -128 -138 -29 -6 -33 -5 -28 12 3 10 11 37 16 59 9 32
19 44 54 62 52 27 73 28 86 5z"/>
<path d="M3578 709 c-10 -5 -18 -20 -18 -33 0 -39 -41 -189 -65 -236 -14 -27
-39 -56 -61 -70 -28 -18 -39 -32 -39 -50 0 -21 5 -26 32 -28 70 -7 150 108
192 275 26 102 26 129 2 143 -23 12 -22 12 -43 -1z"/>
<path d="M3758 658 c-83 -87 -78 -78 -70 -144 7 -56 9 -60 46 -78 34 -17 46
-18 98 -8 71 13 118 44 118 78 0 31 -18 31 -78 -1 -67 -36 -112 -32 -112 10 0
19 7 23 45 28 103 15 166 78 134 136 -13 23 -22 26 -73 29 l-58 3 -50 -53z"/>
<path d="M4955 2009 c-17 -5 -44 -22 -60 -39 -36 -38 -36 -11 0 -530 41 -608
43 -632 65 -710 77 -275 290 -500 579 -613 219 -85 501 -90 727 -13 263 89
483 285 587 522 49 111 65 217 87 569 12 182 27 417 35 524 13 177 13 197 -2
228 -21 45 -53 65 -106 65 -48 1 -61 -7 -329 -202 -53 -38 -103 -70 -110 -70
-8 0 -22 6 -33 14 -36 24 -179 74 -261 90 -105 21 -312 22 -421 1 -80 -15
-158 -41 -256 -85 l-48 -21 -52 39 c-164 123 -315 226 -342 232 -16 4 -44 3
-60 -1z m238 -227 c106 -76 197 -141 203 -145 6 -3 47 11 91 33 162 78 307
106 487 97 139 -7 243 -34 369 -94 l97 -47 58 40 c31 22 124 89 205 147 81 59
155 107 163 107 8 0 17 -7 21 -15 3 -9 -9 -224 -26 -478 -17 -254 -31 -474
-31 -489 l0 -28 -190 0 -190 0 0 -25 0 -25 185 0 c207 0 196 4 174 -72 l-10
-38 -174 0 -175 0 0 -25 0 -25 165 0 c91 0 165 -2 165 -4 0 -2 -9 -25 -20 -50
l-19 -46 -146 0 -145 0 0 -30 0 -30 120 0 c66 0 120 -4 120 -9 0 -26 -105
-138 -190 -201 -305 -227 -728 -250 -1066 -59 -77 43 -246 196 -273 247 l-12
22 116 0 116 0 -3 28 -3 27 -132 3 -131 3 -21 44 c-12 25 -21 47 -21 50 0 3
70 5 155 5 l155 0 0 25 0 25 -160 0 c-177 0 -171 -2 -185 73 l-7 37 176 0 176
0 0 25 0 25 -177 2 -178 3 -7 95 c-47 692 -59 884 -54 896 3 8 13 14 21 14 9
0 103 -62 208 -138z"/>
<path d="M5484 1197 c-52 -45 -17 -137 52 -137 35 0 74 42 74 80 0 38 -39 80
-74 80 -14 0 -37 -11 -52 -23z"/>
<path d="M6256 1199 c-52 -41 -18 -139 48 -139 70 0 104 92 51 138 -33 28 -65
28 -99 1z"/>
<path d="M5892 849 c-42 -9 -78 -42 -93 -86 -16 -49 10 -115 57 -143 l34 -22
0 -124 0 -124 30 0 30 0 0 128 0 127 35 19 c46 25 72 89 56 139 -22 65 -83
100 -149 86z"/>
</g>
</svg>
