<svg width="24" height="24" viewBox="0 0 24 24" fill="none" xmlns="http://www.w3.org/2000/svg">
<path fill-rule="evenodd" clip-rule="evenodd" d="M10.7879 0C4.8299 0 0 4.8299 0 10.7879C0 16.7459 4.8299 21.5758 10.7879 21.5758C13.374 21.5758 15.7475 20.6658 17.6058 19.1486L22.1377 23.6805L22.2405 23.7712C22.6684 24.104 23.2872 24.0737 23.6805 23.6805C24.1065 23.2545 24.1065 22.5637 23.6805 22.1377L19.1486 17.6058C20.6658 15.7475 21.5758 13.374 21.5758 10.7879C21.5758 4.8299 16.7459 0 10.7879 0ZM16.9794 16.7653C18.4743 15.2171 19.3939 13.1099 19.3939 10.7879C19.3939 6.03488 15.5409 2.18182 10.7879 2.18182C6.03488 2.18182 2.18182 6.03488 2.18182 10.7879C2.18182 15.5409 6.03488 19.3939 10.7879 19.3939C13.1099 19.3939 15.2172 18.4743 16.7653 16.9794C16.7954 16.9396 16.8286 16.9013 16.865 16.865C16.9013 16.8286 16.9396 16.7954 16.9794 16.7653Z" fill="#1E1E1E"/>
</svg>
